<svg viewBox="0 0 1024 1176.463" xmlns="http://www.w3.org/2000/svg"><path d="M432.023 512h-239.93-.002c-22.083 0-39.986 17.903-39.986 39.987v399.885c0 22.085 17.903 39.988 39.987 39.988h279.922V551.988c0-22.085-17.904-39.988-39.99-39.988zm199.942-239.93h-239.93-.002c-22.084 0-39.987 17.902-39.987 39.986v179.95h79.977c33.11.04 59.94 26.87 59.983 59.978V991.86h179.948V312.057c0-22.085-17.903-39.988-39.988-39.988zm239.93-199.942v879.744c0 22.085-17.902 39.988-39.986 39.988H691.947V312.057c-.042-33.11-26.872-59.94-59.98-59.983h-79.98V72.127v-.002c0-22.085 17.903-39.988 39.988-39.988h239.93c22.086 0 39.99 17.903 39.99 39.988z"/></svg>